<svg width="95" height="30" viewBox="0 0 95 30" fill="none" xmlns="http://www.w3.org/2000/svg">
<g filter="url(#filter0_i)">
<path d="M4.55273 15.5352C4.55273 18.6406 5.49023 21.2188 7.36523 23.2695C9.24023 25.3086 11.7305 26.3281 14.8359 26.3281C17.9414 26.3281 20.4785 25.3555 22.4473 23.4102C24.416 21.4531 25.4004 18.7754 25.4004 15.377C25.4004 11.9785 24.4219 9.33594 22.4648 7.44922C20.5195 5.55078 18.0293 4.60156 14.9941 4.60156C11.959 4.60156 9.45703 5.65039 7.48828 7.74805C5.53125 9.83398 4.55273 12.4297 4.55273 15.5352ZM5.00977 25.4141C3.83789 24.207 2.92969 22.7773 2.28516 21.125C1.65234 19.4727 1.33594 17.8145 1.33594 16.1504C1.33594 13.1738 1.95703 10.6133 3.19922 8.46875C4.44141 6.3125 6.11719 4.64258 8.22656 3.45898C10.3477 2.26367 12.6562 1.66602 15.1523 1.66602C16.9453 1.66602 18.6562 1.9707 20.2852 2.58008C21.9258 3.18945 23.3672 4.06836 24.6094 5.2168C25.8633 6.36523 26.8594 7.76562 27.5977 9.41797C28.3359 11.0703 28.7051 12.9336 28.7051 15.0078C28.7051 19.2148 27.4453 22.6426 24.9258 25.291C22.418 27.9395 19.0957 29.2637 14.959 29.2637C10.834 29.2637 7.51758 27.9805 5.00977 25.4141ZM64.9519 4.75977L63.6159 4.70703C63.4402 4.70703 63.282 4.71875 63.1413 4.74219V26.1699H64.7058C65.3152 26.1699 65.7956 26.3047 66.1472 26.5742C66.5105 26.8438 66.6921 27.1895 66.6921 27.6113C66.6921 28.0332 66.5398 28.373 66.2351 28.6309C65.9304 28.877 65.5144 29 64.987 29L61.489 28.8945L58.2019 29C57.2527 29 56.6667 28.7188 56.4441 28.1562C56.3738 27.9922 56.3386 27.7637 56.3386 27.4707C56.3386 27.1777 56.4968 26.8906 56.8132 26.6094C57.1413 26.3164 57.7155 26.1699 58.5359 26.1699H59.9948V9.89258C59.9948 8.52148 60.0417 7.29687 60.1355 6.21875L50.5378 24.9395C50.0808 26.0176 49.5124 26.5566 48.8327 26.5566C48.3523 26.5566 47.989 26.4453 47.7429 26.2227C47.5085 26 47.2331 25.5781 46.9167 24.957L37.2136 6.46484C37.3191 7.70703 37.3718 9.25391 37.3718 11.1055V26.1699H38.7956C39.6042 26.1699 40.1726 26.3164 40.5007 26.6094C40.8405 26.8906 41.0105 27.1777 41.0105 27.4707C41.0105 28.4902 40.3835 29 39.1296 29L35.8425 28.8945L32.3269 29C31.8113 29 31.4011 28.877 31.0964 28.6309C30.8034 28.373 30.657 28.0332 30.657 27.6113C30.657 27.1895 30.8327 26.8438 31.1843 26.5742C31.5359 26.3047 32.0163 26.1699 32.6257 26.1699H34.1902V4.77734L33.7683 4.75977L32.362 4.8125C32.0808 4.8125 31.7937 4.78906 31.5007 4.74219C30.7273 4.625 30.3405 4.16797 30.3405 3.37109C30.3405 2.25781 31.0613 1.70117 32.5027 1.70117H33.03C35.5261 1.70117 37.237 2.09375 38.1628 2.87891C38.6316 3.26562 39.1472 4.00391 39.7097 5.09375L48.7097 22.0039L57.0593 5.72656C57.9382 3.96875 59.0691 2.83203 60.4519 2.31641C61.3894 1.96484 62.28 1.77734 63.1238 1.75391C63.9792 1.71875 64.6706 1.70117 65.198 1.70117C66.3933 1.70117 66.9909 2.23437 66.9909 3.30078C66.9909 4.10938 66.6511 4.56641 65.9714 4.67188C65.6198 4.73047 65.28 4.75977 64.9519 4.75977ZM87.3647 13.4785L91.0385 13.2852C92.4565 13.2852 93.2768 13.7422 93.4995 14.6562C93.5698 14.9492 93.6049 15.2715 93.6049 15.623V21.125C93.6049 22.6133 93.3881 23.7148 92.9545 24.4297C92.5209 25.1328 91.7123 25.9473 90.5287 26.873C89.3452 27.8574 87.5287 28.5723 85.0795 29.0176C84.1772 29.1816 83.0053 29.2637 81.5639 29.2637C80.1225 29.2637 78.5991 28.9707 76.9936 28.3848C75.3881 27.7871 73.9936 26.9199 72.81 25.7832C70.2553 23.334 68.978 19.9766 68.978 15.7109C68.978 11.4453 70.2612 8.04102 72.8276 5.49805C75.394 2.94336 78.769 1.66602 82.9526 1.66602C84.7455 1.66602 86.1987 1.76563 87.312 1.96484C87.3002 1.90625 87.2944 1.85938 87.2944 1.82422V1.71875C87.3178 1.34375 87.4467 1.05078 87.6811 0.839844C87.9272 0.617187 88.2143 0.505859 88.5424 0.505859C88.8823 0.505859 89.2162 0.664062 89.5444 0.980469C89.8725 1.29688 90.2065 1.82422 90.5463 2.5625C90.8979 3.28906 91.2084 3.82812 91.478 4.17969L92.8842 6.02539C93.4233 6.7168 93.6928 7.28516 93.6928 7.73047C93.6928 8.16406 93.5756 8.51563 93.3412 8.78516C93.1186 9.05469 92.8139 9.18945 92.4272 9.18945C92.0405 9.18945 91.6889 9.08398 91.3725 8.87305C91.0678 8.65039 90.728 8.23438 90.353 7.625C89.6381 6.44141 88.6655 5.60352 87.435 5.11133C86.2162 4.61914 84.7631 4.37305 83.0756 4.37305C79.853 4.37305 77.269 5.36914 75.3237 7.36133C73.3784 9.35352 72.4057 12.0957 72.4057 15.5879C72.4057 19.0684 73.3315 21.7402 75.183 23.6035C77.0346 25.4668 79.3959 26.3984 82.267 26.3984C84.2006 26.3984 85.9291 26.0938 87.4526 25.4844C88.1323 25.2031 88.7241 24.8223 89.228 24.3418C89.7319 23.8613 90.0776 23.4219 90.2651 23.0234C90.4643 22.6133 90.5639 21.7344 90.5639 20.3867V16.9414C90.5639 16.7773 90.4995 16.625 90.3705 16.4844C90.2534 16.332 90.0366 16.2559 89.7202 16.2559C88.5014 16.2559 87.3764 16.2969 86.3452 16.3789C85.3256 16.4492 84.476 16.4844 83.7963 16.4844C83.1166 16.4844 82.6245 16.3379 82.3198 16.0449C82.0268 15.752 81.8803 15.3887 81.8803 14.9551C81.8803 13.9121 82.7416 13.3906 84.4643 13.3906C84.8159 13.3906 85.1147 13.3965 85.3608 13.4082L85.9936 13.4434C86.5092 13.4668 86.9662 13.4785 87.3647 13.4785Z" fill="black"/>
</g>
<path d="M7.36523 23.2695L6.99622 23.6069L6.99718 23.608L7.36523 23.2695ZM22.4473 23.4102L22.7987 23.7658L22.7998 23.7648L22.4473 23.4102ZM22.4648 7.44922L22.1156 7.80706L22.1178 7.80918L22.4648 7.44922ZM7.48828 7.74805L7.1237 7.40587L7.12364 7.40594L7.48828 7.74805ZM5.00977 25.4141L4.65102 25.7624L4.65215 25.7635L5.00977 25.4141ZM2.28516 21.125L1.81822 21.3038L1.81934 21.3067L2.28516 21.125ZM3.19922 8.46875L3.63188 8.71936L3.63247 8.71834L3.19922 8.46875ZM8.22656 3.45898L8.47123 3.89503L8.47204 3.89458L8.22656 3.45898ZM20.2852 2.58008L20.11 3.04838L20.1111 3.04879L20.2852 2.58008ZM24.6094 5.2168L24.2699 5.58394L24.2717 5.58552L24.6094 5.2168ZM24.9258 25.291L24.5635 24.9464L24.5627 24.9472L24.9258 25.291ZM4.05273 15.5352C4.05273 18.7497 5.02685 21.4529 6.99622 23.6069L7.73425 22.9321C5.95362 20.9846 5.05273 18.5316 5.05273 15.5352H4.05273ZM6.99718 23.608C8.97886 25.763 11.6093 26.8281 14.8359 26.8281V25.8281C11.8516 25.8281 9.50161 24.8541 7.73328 22.9311L6.99718 23.608ZM14.8359 26.8281C18.0555 26.8281 20.7246 25.8152 22.7987 23.7658L22.0958 23.0545C20.2324 24.8957 17.8273 25.8281 14.8359 25.8281V26.8281ZM22.7998 23.7648C24.8833 21.6936 25.9004 18.8767 25.9004 15.377H24.9004C24.9004 18.674 23.9487 21.2126 22.0948 23.0555L22.7998 23.7648ZM25.9004 15.377C25.9004 11.8788 24.8899 9.09262 22.8119 7.08926L22.1178 7.80918C23.9539 9.57925 24.9004 12.0782 24.9004 15.377H25.9004ZM22.8141 7.09138C20.7641 5.09084 18.1432 4.10156 14.9941 4.10156V5.10156C17.9154 5.10156 20.2749 6.01073 22.1156 7.80706L22.8141 7.09138ZM14.9941 4.10156C11.8294 4.10156 9.19265 5.20146 7.1237 7.40587L7.85286 8.09022C9.72141 6.09933 12.0886 5.10156 14.9941 5.10156V4.10156ZM7.12364 7.40594C5.07184 9.59289 4.05273 12.3145 4.05273 15.5352H5.05273C5.05273 12.5449 5.99066 10.0751 7.85292 8.09015L7.12364 7.40594ZM5.36851 25.0658C4.24557 23.9091 3.37261 22.537 2.75097 20.9433L1.81934 21.3067C2.48676 23.0177 3.43021 24.5049 4.65103 25.7624L5.36851 25.0658ZM2.75208 20.9462C2.13974 19.3473 1.83594 17.7495 1.83594 16.1504H0.835938C0.835938 17.8794 1.16495 19.598 1.81823 21.3038L2.75208 20.9462ZM1.83594 16.1504C1.83594 13.2441 2.4419 10.7738 3.63188 8.71936L2.76656 8.21814C1.47216 10.4528 0.835938 13.1035 0.835938 16.1504H1.83594ZM3.63247 8.71834C4.83108 6.63772 6.44269 5.03327 8.47123 3.89503L7.98189 3.02294C5.79168 4.25189 4.05173 5.98728 2.76597 8.21916L3.63247 8.71834ZM8.47204 3.89458C10.5163 2.74259 12.74 2.16602 15.1523 2.16602V1.16602C12.5725 1.16602 10.1791 1.78476 7.98109 3.02339L8.47204 3.89458ZM15.1523 2.16602C16.8874 2.16602 18.5388 2.46062 20.11 3.04838L20.4603 2.11178C18.7737 1.48079 17.0033 1.16602 15.1523 1.16602V2.16602ZM20.1111 3.04879C21.6926 3.63623 23.0774 4.48136 24.2699 5.58393L24.9488 4.84966C23.657 3.65536 22.1589 2.74268 20.4592 2.11137L20.1111 3.04879ZM24.2717 5.58552C25.4719 6.68482 26.429 8.02798 27.1412 9.62194L28.0542 9.214C27.2898 7.50327 26.2546 6.04565 24.9471 4.84808L24.2717 5.58552ZM27.1412 9.62194C27.8469 11.2014 28.2051 12.9937 28.2051 15.0078H29.2051C29.2051 12.8735 28.825 10.9392 28.0542 9.214L27.1412 9.62194ZM28.2051 15.0078C28.2051 19.1074 26.9812 22.405 24.5635 24.9464L25.288 25.6356C27.9094 22.8802 29.2051 19.3223 29.2051 15.0078H28.2051ZM24.5627 24.9472C22.1624 27.4821 18.9786 28.7637 14.959 28.7637V29.7637C19.2128 29.7637 22.6735 28.3968 25.2888 25.6348L24.5627 24.9472ZM14.959 28.7637C10.9467 28.7637 7.76682 27.5201 5.36738 25.0646L4.65215 25.7635C7.26833 28.4408 10.7213 29.7637 14.959 29.7637V28.7637ZM64.9519 4.75977L64.9322 5.25938L64.942 5.25977H64.9519V4.75977ZM63.6159 4.70703L63.6357 4.20742L63.6258 4.20703H63.6159V4.70703ZM63.1413 4.74219L63.0591 4.24899L62.6413 4.31862V4.74219H63.1413ZM63.1413 26.1699H62.6413V26.6699H63.1413V26.1699ZM66.1472 26.5742L65.8429 26.9711L65.8493 26.9758L66.1472 26.5742ZM66.2351 28.6309L66.5493 29.0199L66.5581 29.0126L66.2351 28.6309ZM64.987 29L64.972 29.4998L64.9795 29.5H64.987V29ZM61.489 28.8945L61.5041 28.3948L61.4885 28.3943L61.4729 28.3948L61.489 28.8945ZM58.2019 29V29.5H58.2099L58.2179 29.4997L58.2019 29ZM56.4441 28.1562L56.9091 27.9722L56.9036 27.9593L56.4441 28.1562ZM56.8132 26.6094L57.1454 26.9831L57.1462 26.9823L56.8132 26.6094ZM59.9948 26.1699V26.6699H60.4948V26.1699H59.9948ZM60.1355 6.21875L60.6336 6.26206L59.6905 5.99064L60.1355 6.21875ZM50.5378 24.9395L50.0929 24.7113L50.0846 24.7275L50.0775 24.7443L50.5378 24.9395ZM47.7429 26.2227L47.3984 26.5853L47.4074 26.5934L47.7429 26.2227ZM46.9167 24.957L47.3623 24.7301L47.3595 24.7247L46.9167 24.957ZM37.2136 6.46484L37.6563 6.23253L36.7154 6.50714L37.2136 6.46484ZM37.3718 26.1699H36.8718V26.6699H37.3718V26.1699ZM40.5007 26.6094L40.1677 26.9823L40.1747 26.9886L40.1819 26.9946L40.5007 26.6094ZM39.1296 29L39.1136 29.4997L39.1216 29.5H39.1296V29ZM35.8425 28.8945L35.8585 28.3948L35.843 28.3943L35.8275 28.3948L35.8425 28.8945ZM32.3269 29V29.5H32.3344L32.3419 29.4998L32.3269 29ZM31.0964 28.6309L30.7661 29.0062L30.774 29.0132L30.7822 29.0198L31.0964 28.6309ZM34.1902 26.1699V26.6699H34.6902V26.1699H34.1902ZM34.1902 4.77734H34.6902V4.29774L34.211 4.27778L34.1902 4.77734ZM33.7683 4.75977L33.7891 4.2602L33.7693 4.25938L33.7495 4.26012L33.7683 4.75977ZM32.362 4.8125V5.3125H32.3714L32.3808 5.31215L32.362 4.8125ZM31.5007 4.74219L31.5797 4.24845L31.5756 4.24783L31.5007 4.74219ZM38.1628 2.87891L37.8394 3.26027L37.8446 3.26459L38.1628 2.87891ZM39.7097 5.09375L39.2653 5.32309L39.2683 5.32866L39.7097 5.09375ZM48.7097 22.0039L48.2683 22.2388L48.7179 23.0835L49.1546 22.2321L48.7097 22.0039ZM57.0593 5.72656L57.5042 5.95478L57.5065 5.95017L57.0593 5.72656ZM60.4519 2.31641L60.6266 2.7849L60.6274 2.78457L60.4519 2.31641ZM63.1237 1.75391L63.1376 2.25376L63.1443 2.25348L63.1237 1.75391ZM65.9714 4.67188L65.8947 4.17776L65.8892 4.17868L65.9714 4.67188ZM64.9716 4.26015L63.6357 4.20742L63.5962 5.20664L64.9322 5.25938L64.9716 4.26015ZM63.6159 4.20703C63.4187 4.20703 63.2323 4.22013 63.0591 4.24899L63.2235 5.23538C63.3316 5.21737 63.4616 5.20703 63.6159 5.20703V4.20703ZM62.6413 4.74219V26.1699H63.6413V4.74219H62.6413ZM63.1413 26.6699H64.7058V25.6699H63.1413V26.6699ZM64.7058 26.6699C65.2458 26.6699 65.6063 26.7895 65.843 26.971L66.4514 26.1774C65.985 25.8198 65.3845 25.6699 64.7058 25.6699V26.6699ZM65.8493 26.9758C66.0961 27.1589 66.1921 27.3606 66.1921 27.6113H67.1921C67.1921 27.0183 66.9248 26.5286 66.4451 26.1727L65.8493 26.9758ZM66.1921 27.6113C66.1921 27.8957 66.0974 28.0924 65.9121 28.2492L66.5581 29.0126C66.9821 28.6537 67.1921 28.1707 67.1921 27.6113H66.1921ZM65.9209 28.2419C65.7317 28.3947 65.4396 28.5 64.987 28.5V29.5C65.5891 29.5 66.1291 29.3592 66.5492 29.0198L65.9209 28.2419ZM65.0021 28.5002L61.5041 28.3948L61.4739 29.3943L64.972 29.4998L65.0021 28.5002ZM61.4729 28.3948L58.1858 28.5003L58.2179 29.4997L61.505 29.3943L61.4729 28.3948ZM58.2019 28.5C57.3246 28.5 57.0168 28.2447 56.909 27.9722L55.9792 28.3403C56.3166 29.1928 57.1808 29.5 58.2019 29.5V28.5ZM56.9036 27.9593C56.8717 27.8848 56.8386 27.7339 56.8386 27.4707H55.8386C55.8386 27.7934 55.8758 28.0995 55.9845 28.3532L56.9036 27.9593ZM56.8386 27.4707C56.8386 27.3747 56.8872 27.2126 57.1454 26.9831L56.481 26.2357C56.1064 26.5687 55.8386 26.9808 55.8386 27.4707H56.8386ZM57.1462 26.9823C57.331 26.8174 57.7445 26.6699 58.5359 26.6699V25.6699C57.6866 25.6699 56.9517 25.8154 56.4802 26.2364L57.1462 26.9823ZM58.5359 26.6699H59.9948V25.6699H58.5359V26.6699ZM60.4948 26.1699V9.89258H59.4948V26.1699H60.4948ZM60.4948 9.89258C60.4948 8.53233 60.5414 7.32259 60.6336 6.26206L59.6373 6.17544C59.5421 7.27116 59.4948 8.51064 59.4948 9.89258H60.4948ZM59.6905 5.99064L50.0929 24.7113L50.9827 25.1676L60.5804 6.44686L59.6905 5.99064ZM50.0775 24.7443C49.6376 25.7819 49.1915 26.0566 48.8327 26.0566V27.0566C49.8334 27.0566 50.5239 26.2533 50.9982 25.1346L50.0775 24.7443ZM48.8327 26.0566C48.4214 26.0566 48.1987 25.9608 48.0783 25.8519L47.4074 26.5934C47.7793 26.9299 48.2831 27.0566 48.8327 27.0566V26.0566ZM48.0873 25.8602C47.9192 25.7005 47.6757 25.3453 47.3622 24.7301L46.4712 25.184C46.7906 25.811 47.0978 26.2995 47.3985 26.5852L48.0873 25.8602ZM47.3595 24.7247L37.6563 6.23253L36.7708 6.69716L46.474 25.1894L47.3595 24.7247ZM36.7154 6.50714C36.8192 7.7303 36.8718 9.26197 36.8718 11.1055H37.8718C37.8718 9.24585 37.8189 7.68376 37.7118 6.42254L36.7154 6.50714ZM36.8718 11.1055V26.1699H37.8718V11.1055H36.8718ZM37.3718 26.6699H38.7956V25.6699H37.3718V26.6699ZM38.7956 26.6699C39.573 26.6699 39.982 26.8166 40.1677 26.9823L40.8337 26.2364C40.3631 25.8163 39.6354 25.6699 38.7956 25.6699V26.6699ZM40.1819 26.9946C40.466 27.2297 40.5105 27.3893 40.5105 27.4707H41.5105C41.5105 26.9661 41.2151 26.5515 40.8195 26.2242L40.1819 26.9946ZM40.5105 27.4707C40.5105 27.8729 40.3919 28.0939 40.2248 28.2297C40.038 28.3816 39.7017 28.5 39.1296 28.5V29.5C39.8114 29.5 40.4156 29.3635 40.8557 29.0056C41.3156 28.6317 41.5105 28.088 41.5105 27.4707H40.5105ZM39.1456 28.5003L35.8585 28.3948L35.8265 29.3943L39.1136 29.4997L39.1456 28.5003ZM35.8275 28.3948L32.3119 28.5002L32.3419 29.4998L35.8575 29.3943L35.8275 28.3948ZM32.3269 28.5C31.8892 28.5 31.6016 28.3962 31.4106 28.2419L30.7822 29.0198C31.2006 29.3577 31.7333 29.5 32.3269 29.5V28.5ZM31.4267 28.2555C31.2511 28.101 31.157 27.9026 31.157 27.6113H30.157C30.157 28.1638 30.3558 28.6451 30.7661 29.0062L31.4267 28.2555ZM31.157 27.6113C31.157 27.3538 31.2532 27.1514 31.4885 26.971L30.8801 26.1774C30.4123 26.5361 30.157 27.0251 30.157 27.6113H31.157ZM31.4885 26.971C31.7252 26.7895 32.0856 26.6699 32.6257 26.6699V25.6699C31.947 25.6699 31.3465 25.8198 30.8801 26.1774L31.4885 26.971ZM32.6257 26.6699H34.1902V25.6699H32.6257V26.6699ZM34.6902 26.1699V4.77734H33.6902V26.1699H34.6902ZM34.211 4.27778L33.7891 4.2602L33.7475 5.25933L34.1693 5.27691L34.211 4.27778ZM33.7495 4.26012L32.3433 4.31285L32.3808 5.31215L33.787 5.25941L33.7495 4.26012ZM32.362 4.3125C32.1086 4.3125 31.848 4.29139 31.5797 4.24847L31.4217 5.23591C31.7394 5.28674 32.0529 5.3125 32.362 5.3125V4.3125ZM31.5756 4.24783C31.2711 4.20169 31.1061 4.09941 31.0123 3.98855C30.9174 3.87647 30.8405 3.69077 30.8405 3.37109H29.8405C29.8405 3.84829 29.957 4.28954 30.2489 4.63449C30.5418 4.98067 30.9569 5.16549 31.4258 5.23655L31.5756 4.24783ZM30.8405 3.37109C30.8405 2.93103 30.9764 2.67682 31.1867 2.51437C31.4215 2.33299 31.8324 2.20117 32.5027 2.20117V1.20117C31.7315 1.20117 31.0613 1.34768 30.5754 1.72294C30.0651 2.11712 29.8405 2.69787 29.8405 3.37109H30.8405ZM32.5027 2.20117H33.03V1.20117H32.5027V2.20117ZM33.03 2.20117C35.5124 2.20117 37.0604 2.59954 37.8394 3.26023L38.4862 2.49758C37.4137 1.58796 35.5398 1.20117 33.03 1.20117V2.20117ZM37.8446 3.26459C38.2311 3.5834 38.7087 4.24458 39.2654 5.32307L40.154 4.86443C39.5856 3.76324 39.0321 2.94785 38.481 2.49322L37.8446 3.26459ZM39.2683 5.32866L48.2683 22.2388L49.1511 21.769L40.1511 4.85884L39.2683 5.32866ZM49.1546 22.2321L57.5042 5.95477L56.6144 5.49836L48.2648 21.7757L49.1546 22.2321ZM57.5065 5.95017C58.348 4.26714 59.3972 3.24331 60.6266 2.7849L60.2772 1.84792C58.7409 2.42075 57.5284 3.67036 56.6121 5.50296L57.5065 5.95017ZM60.6274 2.78457C61.5226 2.4489 62.3584 2.27536 63.1376 2.25371L63.1099 1.2541C62.2016 1.27933 61.2562 1.48078 60.2763 1.84824L60.6274 2.78457ZM63.1443 2.25348C63.9965 2.21846 64.6803 2.20117 65.198 2.20117V1.20117C64.6609 1.20117 63.9619 1.21904 63.1032 1.25433L63.1443 2.25348ZM65.198 2.20117C65.7317 2.20117 66.0387 2.32146 66.2098 2.47417C66.3701 2.61719 66.4909 2.86035 66.4909 3.30078H67.4909C67.4909 2.6748 67.3129 2.11816 66.8756 1.72798C66.4491 1.34749 65.8595 1.20117 65.198 1.20117V2.20117ZM66.4909 3.30078C66.4909 3.64135 66.4187 3.83889 66.3348 3.95165C66.259 4.05364 66.1336 4.14072 65.8947 4.17779L66.0481 5.16596C66.4889 5.09756 66.8733 4.90339 67.1373 4.54835C67.3933 4.20408 67.4909 3.76881 67.4909 3.30078H66.4909ZM65.8892 4.17868C65.5625 4.23313 65.2502 4.25977 64.9519 4.25977V5.25977C65.3098 5.25977 65.6772 5.22781 66.0536 5.16507L65.8892 4.17868ZM87.3647 13.4785V13.9785H87.3778L87.391 13.9778L87.3647 13.4785ZM91.0385 13.2852V12.7852H91.0254L91.0122 12.7858L91.0385 13.2852ZM93.4995 14.6562L93.9856 14.5396L93.9852 14.5379L93.4995 14.6562ZM92.9545 24.4297L93.3801 24.6921L93.382 24.689L92.9545 24.4297ZM90.5287 26.873L90.2207 26.4792L90.2148 26.4838L90.209 26.4886L90.5287 26.873ZM76.9936 28.3848L76.8192 28.8534L76.8222 28.8545L76.9936 28.3848ZM72.81 25.7832L73.1563 25.4226L73.156 25.4223L72.81 25.7832ZM72.8276 5.49805L73.1795 5.85322L73.1803 5.85241L72.8276 5.49805ZM87.312 1.96484L87.2239 2.45703L87.9461 2.58627L87.8022 1.86679L87.312 1.96484ZM87.2944 1.71875L86.7953 1.68756L86.7944 1.70314V1.71875H87.2944ZM87.6811 0.839844L88.0156 1.21149L88.0165 1.21061L87.6811 0.839844ZM90.5463 2.5625L90.092 2.77161L90.0962 2.78028L90.5463 2.5625ZM91.478 4.17969L91.8757 3.87666L91.8748 3.87547L91.478 4.17969ZM92.8842 6.02539L92.4865 6.32843L92.4899 6.33282L92.8842 6.02539ZM93.3412 8.78516L92.9638 8.45696L92.9558 8.46672L93.3412 8.78516ZM91.3725 8.87305L91.0775 9.27674L91.0862 9.2831L91.0951 9.28907L91.3725 8.87305ZM90.353 7.625L89.925 7.8835L89.9271 7.88705L90.353 7.625ZM87.435 5.11133L87.2478 5.57495L87.2493 5.57557L87.435 5.11133ZM87.4526 25.4844L87.6383 25.9486L87.6438 25.9464L87.4526 25.4844ZM90.2651 23.0234L89.8153 22.805L89.8127 22.8105L90.2651 23.0234ZM90.3705 16.4844L89.9742 16.7892L89.9874 16.8063L90.002 16.8222L90.3705 16.4844ZM86.3452 16.3789L86.3796 16.8777L86.3848 16.8773L86.3452 16.3789ZM82.3198 16.0449L81.9661 16.3985L81.9732 16.4053L82.3198 16.0449ZM85.3608 13.4082L85.3885 12.909L85.3846 12.9088L85.3608 13.4082ZM85.9936 13.4434L85.9659 13.9426L85.9709 13.9428L85.9936 13.4434ZM87.391 13.9778L91.0648 13.7845L91.0122 12.7858L87.3384 12.9792L87.391 13.9778ZM91.0385 13.7852C91.7023 13.7852 92.1666 13.8935 92.4739 14.0647C92.7621 14.2253 92.9352 14.4525 93.0137 14.7746L93.9852 14.5379C93.841 13.9459 93.4926 13.4876 92.9606 13.1911C92.4475 12.9053 91.7927 12.7852 91.0385 12.7852V13.7852ZM93.0133 14.7729C93.073 15.022 93.1049 15.3044 93.1049 15.623H94.1049C94.1049 15.2385 94.0665 14.8765 93.9856 14.5396L93.0133 14.7729ZM93.1049 15.623V21.125H94.1049V15.623H93.1049ZM93.1049 21.125C93.1049 22.5836 92.8891 23.5735 92.527 24.1704L93.382 24.689C93.8872 23.8562 94.1049 22.643 94.1049 21.125H93.1049ZM92.5289 24.1672C92.1422 24.7943 91.3894 25.5651 90.2207 26.4792L90.8368 27.2669C92.0353 26.3294 92.8996 25.4713 93.3801 24.6921L92.5289 24.1672ZM90.209 26.4886C89.1206 27.3939 87.4014 28.0872 84.9901 28.5256L85.169 29.5095C87.6561 29.0573 89.5697 28.321 90.8485 27.2575L90.209 26.4886ZM84.9901 28.5256C84.129 28.6822 82.9902 28.7637 81.5639 28.7637V29.7637C83.0204 29.7637 84.2254 29.6811 85.169 29.5095L84.9901 28.5256ZM81.5639 28.7637C80.1907 28.7637 78.7255 28.4846 77.165 27.9151L76.8222 28.8545C78.4726 29.4568 80.0543 29.7637 81.5639 29.7637V28.7637ZM77.168 27.9162C75.6238 27.3413 74.2885 26.5099 73.1563 25.4226L72.4637 26.1438C73.6987 27.33 75.1525 28.2329 76.8192 28.8534L77.168 27.9162ZM73.156 25.4223C70.7195 23.0863 69.478 19.8704 69.478 15.7109H68.478C68.478 20.0827 69.7911 23.5816 72.464 26.1441L73.156 25.4223ZM69.478 15.7109C69.478 11.5528 70.7248 8.28547 73.1795 5.85322L72.4756 5.14288C69.7975 7.79656 68.478 11.3379 68.478 15.7109H69.478ZM73.1803 5.85241C75.6384 3.40558 78.879 2.16602 82.9526 2.16602V1.16602C78.659 1.16602 75.1496 2.48114 72.4748 5.14369L73.1803 5.85241ZM82.9526 2.16602C84.731 2.16602 86.1514 2.26511 87.2239 2.45703L87.4 1.47266C86.2459 1.26614 84.7601 1.16602 82.9526 1.16602V2.16602ZM87.8022 1.86679C87.7982 1.84647 87.796 1.83242 87.7949 1.82372C87.7937 1.81436 87.7944 1.81541 87.7944 1.82422H86.7944C86.7944 1.90726 86.8073 1.99106 86.8217 2.0629L87.8022 1.86679ZM87.7944 1.82422V1.71875H86.7944V1.82422H87.7944ZM87.7934 1.74994C87.8103 1.47882 87.8968 1.31842 88.0156 1.21149L87.3466 0.468197C86.9967 0.783145 86.8253 1.20868 86.7953 1.68756L87.7934 1.74994ZM88.0165 1.21061C88.1719 1.07008 88.3398 1.00586 88.5424 1.00586V0.00585938C88.0888 0.00585938 87.6825 0.164295 87.3456 0.469076L88.0165 1.21061ZM88.5424 1.00586C88.7137 1.00586 88.9298 1.08241 89.1973 1.34039L89.8914 0.620547C89.5027 0.245719 89.0509 0.00585938 88.5424 0.00585938V1.00586ZM89.1973 1.34039C89.4585 1.59221 89.7612 2.05262 90.0921 2.77157L91.0005 2.35343C90.6518 1.59581 90.2865 1.00154 89.8914 0.620547L89.1973 1.34039ZM90.0962 2.78028C90.4527 3.51685 90.7806 4.09191 91.0812 4.4839L91.8748 3.87547C91.6362 3.56434 91.3431 3.06127 90.9964 2.34472L90.0962 2.78028ZM91.0803 4.48271L92.4865 6.32841L93.2819 5.72237L91.8757 3.87667L91.0803 4.48271ZM92.4899 6.33282C93.0167 7.00844 93.1928 7.46235 93.1928 7.73047H94.1928C94.1928 7.10796 93.8299 6.42515 93.2785 5.71796L92.4899 6.33282ZM93.1928 7.73047C93.1928 8.07043 93.1031 8.29699 92.9639 8.45707L93.7186 9.11325C94.0481 8.73426 94.1928 8.2577 94.1928 7.73047H93.1928ZM92.9558 8.46672C92.839 8.60812 92.6827 8.68945 92.4272 8.68945V9.68945C92.9451 9.68945 93.3982 9.50126 93.7267 9.1036L92.9558 8.46672ZM92.4272 8.68945C92.1374 8.68945 91.8827 8.61222 91.6498 8.45702L91.0951 9.28907C91.4952 9.55574 91.9435 9.68945 92.4272 9.68945V8.68945ZM91.6675 8.46935C91.4433 8.30554 91.1447 7.95761 90.7788 7.36295L89.9271 7.88705C90.3112 8.51114 90.6923 8.99524 91.0775 9.27674L91.6675 8.46935ZM90.781 7.36651C90.0125 6.09413 88.9568 5.18151 87.6207 4.64709L87.2493 5.57557C88.3742 6.02552 89.2637 6.78869 89.925 7.88349L90.781 7.36651ZM87.6222 4.64771C86.3297 4.12573 84.8099 3.87305 83.0756 3.87305V4.87305C84.7164 4.87305 86.1028 5.11255 87.2478 5.57495L87.6222 4.64771ZM83.0756 3.87305C79.7413 3.87305 77.0203 4.90815 74.9659 7.01201L75.6814 7.71065C77.5177 5.83013 79.9646 4.87305 83.0756 4.87305V3.87305ZM74.9659 7.01201C72.9076 9.11989 71.9057 12 71.9057 15.5879H72.9057C72.9057 12.1914 73.8491 9.58714 75.6814 7.71065L74.9659 7.01201ZM71.9057 15.5879C71.9057 19.156 72.8565 21.9716 74.8284 23.956L75.5377 23.2511C73.8064 21.5089 72.9057 18.9807 72.9057 15.5879H71.9057ZM74.8284 23.956C76.783 25.9229 79.2764 26.8984 82.267 26.8984V25.8984C79.5154 25.8984 77.2862 25.0107 75.5377 23.2511L74.8284 23.956ZM82.267 26.8984C84.2531 26.8984 86.0462 26.5854 87.6383 25.9486L87.2669 25.0201C85.812 25.6021 84.1482 25.8984 82.267 25.8984V26.8984ZM87.6438 25.9464C88.3772 25.6429 89.0219 25.2291 89.573 24.7037L88.8829 23.9799C88.4262 24.4154 87.8873 24.7634 87.2614 25.0224L87.6438 25.9464ZM89.573 24.7037C90.0986 24.2025 90.4929 23.7135 90.7175 23.2363L89.8127 22.8105C89.6622 23.1302 89.3651 23.5202 88.8829 23.9799L89.573 24.7037ZM90.7148 23.2419C90.8528 22.9579 90.9347 22.5661 90.986 22.1129C91.0387 21.6478 91.0639 21.0707 91.0639 20.3867H90.0639C90.0639 21.0504 90.0393 21.5865 89.9924 22.0003C89.9441 22.4261 89.8766 22.6789 89.8153 22.805L90.7148 23.2419ZM91.0639 20.3867V16.9414H90.0639V20.3867H91.0639ZM91.0639 16.9414C91.0639 16.6321 90.9379 16.3633 90.7391 16.1465L90.002 16.8222C90.061 16.8867 90.0639 16.9226 90.0639 16.9414H91.0639ZM90.7669 16.1795C90.5075 15.8424 90.0923 15.7559 89.7202 15.7559V16.7559C89.8416 16.7559 89.9151 16.7709 89.9543 16.7847C89.9894 16.7971 89.9854 16.8038 89.9742 16.7892L90.7669 16.1795ZM89.7202 15.7559C88.4904 15.7559 87.352 15.7972 86.3055 15.8805L86.3848 16.8773C87.4008 16.7965 88.5124 16.7559 89.7202 16.7559V15.7559ZM86.3108 15.8801C85.2976 15.95 84.4604 15.9844 83.7963 15.9844V16.9844C84.4916 16.9844 85.3536 16.9485 86.3796 16.8777L86.3108 15.8801ZM83.7963 15.9844C83.1708 15.9844 82.8351 15.8468 82.6663 15.6845L81.9732 16.4053C82.4138 16.829 83.0624 16.9844 83.7963 16.9844V15.9844ZM82.6733 15.6914C82.4789 15.4969 82.3803 15.2629 82.3803 14.9551H81.3803C81.3803 15.5144 81.5747 16.007 81.9662 16.3985L82.6733 15.6914ZM82.3803 14.9551C82.3803 14.6009 82.5107 14.3757 82.7853 14.2095C83.1003 14.0187 83.6371 13.8906 84.4643 13.8906V12.8906C83.5688 12.8906 82.8137 13.0233 82.2673 13.354C81.6806 13.7093 81.3803 14.2663 81.3803 14.9551H82.3803ZM84.4643 13.8906C84.811 13.8906 85.1014 13.8964 85.337 13.9076L85.3846 12.9088C85.128 12.8966 84.8207 12.8906 84.4643 12.8906V13.8906ZM85.333 13.9074L85.9659 13.9426L86.0213 12.9441L85.3885 12.909L85.333 13.9074ZM85.9709 13.9428C86.492 13.9665 86.9569 13.9785 87.3647 13.9785V12.9785C86.9756 12.9785 86.5264 12.9671 86.0163 12.9439L85.9709 13.9428Z" fill="black"/>
<defs>
<filter id="filter0_i" x="0.835938" y="0.00585938" width="93.3569" height="33.7578" filterUnits="userSpaceOnUse" color-interpolation-filters="sRGB">
<feFlood flood-opacity="0" result="BackgroundImageFix"/>
<feBlend mode="normal" in="SourceGraphic" in2="BackgroundImageFix" result="shape"/>
<feColorMatrix in="SourceAlpha" type="matrix" values="0 0 0 0 0 0 0 0 0 0 0 0 0 0 0 0 0 0 127 0" result="hardAlpha"/>
<feOffset dy="4"/>
<feGaussianBlur stdDeviation="2"/>
<feComposite in2="hardAlpha" operator="arithmetic" k2="-1" k3="1"/>
<feColorMatrix type="matrix" values="0 0 0 0 0 0 0 0 0 0 0 0 0 0 0 0 0 0 0.25 0"/>
<feBlend mode="normal" in2="shape" result="effect1_innerShadow"/>
</filter>
</defs>
</svg>
